<?xml version="1.0" encoding="UTF-8"?>
<svg xmlns="http://www.w3.org/2000/svg" viewBox="0 0 800 560" width="800" height="560">
  <defs>
    <radialGradient id="bgGrad_pteridinium" cx="50%" cy="46%" r="65%">
      <stop offset="0%" stop-color="#141d2c" stop-opacity="1"/>
      <stop offset="60%" stop-color="#070c14" stop-opacity="1"/>
      <stop offset="100%" stop-color="#020408" stop-opacity="1"/>
    </radialGradient>
    <linearGradient id="themeGrad_pteridinium" x1="0%" y1="0%" x2="100%" y2="100%">
      <stop offset="0%" stop-color="#ec4899" stop-opacity="0.95"/>
      <stop offset="100%" stop-color="#ffffff" stop-opacity="0.6"/>
    </linearGradient>
    <filter id="glow_pteridinium" x="-20%" y="-20%" width="140%" height="140%">
      <feGaussianBlur stdDeviation="6" result="blur"/>
      <feComposite in="SourceGraphic" in2="blur" operator="over"/>
    </filter>
  </defs>

  <!-- Deep Cosmic / Museum Canvas Background -->
  <rect width="800" height="560" fill="url(#bgGrad_pteridinium)"/>

  <!-- Technical Stratigraphic Grid -->
  <g stroke="rgba(255, 255, 255, 0.04)" stroke-width="1">
    <line x1="60" y1="80" x2="740" y2="80"/>
    <line x1="60" y1="200" x2="740" y2="200"/>
    <line x1="60" y1="320" x2="740" y2="320"/>
    <line x1="60" y1="440" x2="740" y2="440"/>
    <line x1="160" y1="60" x2="160" y2="480"/>
    <line x1="320" y1="60" x2="320" y2="480"/>
    <line x1="480" y1="60" x2="480" y2="480"/>
    <line x1="640" y1="60" x2="640" y2="480"/>
  </g>

  <!-- Specimen Holographic Frame Header -->
  <rect x="60" y="35" width="680" height="42" rx="8" fill="rgba(255, 255, 255, 0.03)" stroke="#ec4899" stroke-opacity="0.25"/>
  <circle cx="85" cy="56" r="6" fill="#ec4899"/>
  <text x="105" y="61" fill="#f8fafc" font-family="'Space Grotesk', 'Outfit', sans-serif" font-weight="700" font-size="14" letter-spacing="1.5">ARCHIVO PALEONTOLÓGICO 3D</text>
  <text x="715" y="61" fill="#ec4899" font-family="'JetBrains Mono', monospace" font-size="12" text-anchor="end">NEOPROTEROZOICO • EDIACÁRICO • 545 MA</text>

  <!-- Central Specimen Graphic -->
  <g transform="translate(0, 10)" color="#ec4899" filter="url(#glow_pteridinium)" opacity="0.95">
    
      <!-- Elongated Three-Vane Quilted Leaf Shape -->
      <!-- Center Axis Vane -->
      <path d="M 220 285 Q 400 230 580 285 Q 400 340 220 285 Z" fill="url(#themeGrad_pteridinium)" opacity="0.45" stroke="currentColor" stroke-width="4"/>
      <!-- Third Vertical Vane (Projecting upward) -->
      <path d="M 220 285 Q 400 150 580 285" stroke="#ffffff" stroke-width="4.5" fill="none"/>
      <!-- Dense Quilted Tubular Ribs -->
      <g stroke="currentColor" stroke-width="2.5" opacity="0.75">
        <line x1="260" y1="280" x2="270" y2="315"/><line x1="300" y1="270" x2="315" y2="325"/>
        <line x1="340" y1="265" x2="360" y2="330"/><line x1="380" y1="260" x2="400" y2="335"/>
        <line x1="420" y1="260" x2="440" y2="335"/><line x1="460" y1="265" x2="480" y2="330"/>
        <line x1="500" y1="270" x2="515" y2="325"/><line x1="540" y1="280" x2="550" y2="315"/>
      </g>
      <!-- Central Commissure Ridge -->
      <line x1="220" y1="285" x2="580" y2="285" stroke="#ffffff" stroke-width="4"/>
      <!-- Callouts -->
      <g font-family="'Space Grotesk', sans-serif" font-size="10" fill="#f8fafc" opacity="0.85">
        <text x="400" y="135" text-anchor="middle">Tercera ala o vana vertical</text>
        <text x="400" y="275" text-anchor="middle">Comisura axial central</text>
        <text x="400" y="365" text-anchor="middle">Costillas tubulares acolchadas (pneu structure)</text>
      </g>
    
  </g>

  <!-- Ground Reference Line & Scale Ticks -->
  <line x1="100" y1="475" x2="700" y2="475" stroke="#ec4899" stroke-opacity="0.4" stroke-width="1.5"/>
  <g stroke="#ec4899" stroke-opacity="0.5" stroke-width="1.5">
    <line x1="100" y1="470" x2="100" y2="480"/>
    <line x1="250" y1="472" x2="250" y2="478"/>
    <line x1="400" y1="470" x2="400" y2="480"/>
    <line x1="550" y1="472" x2="550" y2="478"/>
    <line x1="700" y1="470" x2="700" y2="480"/>
  </g>

  <!-- Human Scale Silhouette (comparison indicator) -->
  <g transform="translate(680, 415)" fill="rgba(255, 255, 255, 0.28)">
    <circle cx="10" cy="8" r="6"/>
    <rect x="7" y="16" width="6" height="24" rx="2"/>
    <line x1="4" y1="22" x2="16" y2="22" stroke="rgba(255, 255, 255, 0.28)" stroke-width="3"/>
    <line x1="8" y1="40" x2="5" y2="58" stroke="rgba(255, 255, 255, 0.28)" stroke-width="3"/>
    <line x1="12" y1="40" x2="15" y2="58" stroke="rgba(255, 255, 255, 0.28)" stroke-width="3"/>
    <text x="10" y="70" fill="rgba(255, 255, 255, 0.45)" font-family="sans-serif" font-size="9" text-anchor="middle">Humano (1.8m)</text>
  </g>

  <!-- Species Nomenclature & Biometrics Footer -->
  <rect x="60" y="495" width="680" height="45" rx="8" fill="rgba(10, 16, 26, 0.85)" stroke="rgba(255, 255, 255, 0.08)"/>
  <text x="80" y="522" fill="#ffffff" font-family="'Space Grotesk', sans-serif" font-size="16" font-weight="700">Organismo Trirradiado Foliáceo Acolchado</text>
  <text x="80" y="534" fill="#94a3b8" font-family="'Outfit', sans-serif" font-style="italic" font-size="11">Pteridinium simplex</text>
  <text x="720" y="523" fill="#ec4899" font-family="'JetBrains Mono', monospace" font-size="11" text-anchor="end">Longitud: 30 cm | Tres alas o vanas acolchadas interconectadas | Estructura en saco semi-enterrado</text>
</svg>