<?xml version="1.0" encoding="UTF-8"?>
<svg xmlns="http://www.w3.org/2000/svg" viewBox="0 0 800 560" width="800" height="560">
  <defs>
    <radialGradient id="bgGrad_thectardis" cx="50%" cy="46%" r="65%">
      <stop offset="0%" stop-color="#141d2c" stop-opacity="1"/>
      <stop offset="60%" stop-color="#070c14" stop-opacity="1"/>
      <stop offset="100%" stop-color="#020408" stop-opacity="1"/>
    </radialGradient>
    <linearGradient id="themeGrad_thectardis" x1="0%" y1="0%" x2="100%" y2="100%">
      <stop offset="0%" stop-color="#ec4899" stop-opacity="0.95"/>
      <stop offset="100%" stop-color="#ffffff" stop-opacity="0.6"/>
    </linearGradient>
    <filter id="glow_thectardis" x="-20%" y="-20%" width="140%" height="140%">
      <feGaussianBlur stdDeviation="6" result="blur"/>
      <feComposite in="SourceGraphic" in2="blur" operator="over"/>
    </filter>
  </defs>

  <!-- Deep Cosmic / Museum Canvas Background -->
  <rect width="800" height="560" fill="url(#bgGrad_thectardis)"/>

  <!-- Technical Stratigraphic Grid -->
  <g stroke="rgba(255, 255, 255, 0.04)" stroke-width="1">
    <line x1="60" y1="80" x2="740" y2="80"/>
    <line x1="60" y1="200" x2="740" y2="200"/>
    <line x1="60" y1="320" x2="740" y2="320"/>
    <line x1="60" y1="440" x2="740" y2="440"/>
    <line x1="160" y1="60" x2="160" y2="480"/>
    <line x1="320" y1="60" x2="320" y2="480"/>
    <line x1="480" y1="60" x2="480" y2="480"/>
    <line x1="640" y1="60" x2="640" y2="480"/>
  </g>

  <!-- Specimen Holographic Frame Header -->
  <rect x="60" y="35" width="680" height="42" rx="8" fill="rgba(255, 255, 255, 0.03)" stroke="#ec4899" stroke-opacity="0.25"/>
  <circle cx="85" cy="56" r="6" fill="#ec4899"/>
  <text x="105" y="61" fill="#f8fafc" font-family="'Space Grotesk', 'Outfit', sans-serif" font-weight="700" font-size="14" letter-spacing="1.5">ARCHIVO PALEONTOLÓGICO 3D</text>
  <text x="715" y="61" fill="#ec4899" font-family="'JetBrains Mono', monospace" font-size="12" text-anchor="end">NEOPROTEROZOICO • EDIACÁRICO • 565 MA</text>

  <!-- Central Specimen Silhouette Graphic -->
  <g transform="translate(0, 10)" color="#ec4899" filter="url(#glow_thectardis)" opacity="0.92">
    <polygon points="400,430 330,170 470,170" fill="currentColor" opacity="0.3" stroke="currentColor" stroke-width="6" stroke-linejoin="round"/><ellipse cx="400" cy="170" rx="70" ry="22" fill="currentColor" opacity="0.7" stroke="currentColor" stroke-width="4"/><circle cx="400" cy="430" r="12" fill="currentColor"/><line x1="400" y1="170" x2="400" y2="430" stroke="currentColor" stroke-width="3" stroke-dasharray="6 4"/>
  </g>

  <!-- Ground Reference Line & Scale Ticks -->
  <line x1="100" y1="475" x2="700" y2="475" stroke="#ec4899" stroke-opacity="0.4" stroke-width="1.5"/>
  <g stroke="#ec4899" stroke-opacity="0.5" stroke-width="1.5">
    <line x1="100" y1="470" x2="100" y2="480"/>
    <line x1="250" y1="472" x2="250" y2="478"/>
    <line x1="400" y1="470" x2="400" y2="480"/>
    <line x1="550" y1="472" x2="550" y2="478"/>
    <line x1="700" y1="470" x2="700" y2="480"/>
  </g>

  <!-- Human Scale Silhouette (comparison indicator) -->
  <g transform="translate(680, 415)" fill="rgba(255, 255, 255, 0.28)">
    <circle cx="10" cy="8" r="6"/>
    <rect x="7" y="16" width="6" height="24" rx="2"/>
    <line x1="4" y1="22" x2="16" y2="22" stroke="rgba(255, 255, 255, 0.28)" stroke-width="3"/>
    <line x1="8" y1="40" x2="5" y2="58" stroke="rgba(255, 255, 255, 0.28)" stroke-width="3"/>
    <line x1="12" y1="40" x2="15" y2="58" stroke="rgba(255, 255, 255, 0.28)" stroke-width="3"/>
    <text x="10" y="70" fill="rgba(255, 255, 255, 0.45)" font-family="sans-serif" font-size="9" text-anchor="middle">Humano (1.8m)</text>
  </g>

  <!-- Species Nomenclature & Biometrics Footer -->
  <rect x="60" y="495" width="680" height="45" rx="8" fill="rgba(10, 16, 26, 0.85)" stroke="rgba(255, 255, 255, 0.08)"/>
  <text x="80" y="522" fill="#ffffff" font-family="'Space Grotesk', sans-serif" font-size="16" font-weight="700">Organismo Sésil Cónico Invertido</text>
  <text x="80" y="534" fill="#94a3b8" font-family="'Outfit', sans-serif" font-style="italic" font-size="11">Thectardis avalonensis</text>
  <text x="720" y="523" fill="#ec4899" font-family="'JetBrains Mono', monospace" font-size="11" text-anchor="end">Altura: 15 cm | Morfología triangular cónica hueca | Filtrador de suspensión bentónico</text>
</svg>